<svg xmlns="http://www.w3.org/2000/svg" height="48" viewBox="0 96 960 960" width="48"><path d="m482 1017-4-130-44-1q-145.506-12-245.753-121.462Q88 655.076 88 508q0-155.406 111.328-265.703Q310.657 132 467.508 132q76.926 0 143.883 29.006 66.958 29.005 115.896 79.062 48.938 50.056 77.326 118.995Q833 428.003 833 507.75q0 77.511-27 150.88Q779 732 733 797T622.927 918.744Q558.855 975.488 482 1017Zm-13.552-269Q487 748 501 733.879q14-14.12 14-32.5Q515 683 500.93 668.5 486.86 654 467.552 654 449 654 434.5 668.328q-14.5 14.327-14.5 33Q420 720 434.363 734q14.363 14 34.085 14ZM431 606h68.167q0-24.889 8.916-43.444Q517 544 541 521q27-28 39-50.459 12-22.459 12-51.651 0-50.509-30.5-81.7Q531 306 473 306q-45.577 0-82.122 26.042Q354.333 358.083 337 403l62.574 25q11.426-27 29.935-40T468 375q25 0 40 11.048t15 32.906q0 16.819-11 34.932Q501 472 476 499q-29 28-37 48.469T431 606Z"/></svg>