<svg xmlns="http://www.w3.org/2000/svg" height="48" viewBox="0 96 960 960" width="48"><path d="M-10 826v-63.434q0-42.587 43.5-69.576Q77 666 150.376 666H164q7 0 13 .652-9 20.348-14.68 40.53-5.681 20.183-5.681 43.641V826H-10Zm240 0v-75q0-36 17.978-64.185Q265.955 658.63 299 638q33.867-20 80.086-31 46.218-11 100.476-11 55.359 0 101.549 11 46.19 11 79.889 31 33 21 51 49t18 64v75H230Zm573 0v-75.571q0-23.029-5-44.099-5-21.069-13-39.603 6-.727 12.314-.727H810q73.9 0 116.95 26.418Q970 718.835 970 763v63H803ZM149.824 638Q119 638 96.5 615.727 74 593.454 74 562.368 74 530 96.567 508t53.363-22Q181 486 204 507.96t23 54.508Q227 593 204.336 615.5 181.673 638 149.824 638Zm660 0Q779 638 756.5 615.727 734 593.454 734 562.368 734 530 756.567 508t53.363-22Q841 486 864 507.96t23 54.508Q887 593 864.336 615.5 841.673 638 809.824 638Zm-328.862-72q-53.342 0-92.152-38.354T350 435.93q0-54.93 38.81-92.43 38.81-37.5 92.152-37.5 54.909 0 91.973 37.268Q610 380.535 610 435.744q0 53.636-37.065 91.946Q535.871 566 480.962 566Z"/></svg>