<svg xmlns="http://www.w3.org/2000/svg" height="48" viewBox="0 96 960 960" width="48"><path d="M475.056 957q-160.56 0-270.513-111.927Q94.591 733.147 97 575h91q1.152 121.3 84.004 206.15Q354.855 866 475 866q121.329 0 207.664-85.948Q769 694.104 769 571.679 769 451 682.045 368.5 595.089 286 475 286q-59.635 0-112.817 24Q309 334 269 375h83v70H129V224h67v94q54-57 126.135-90.5Q394.271 194 475 194q79.171 0 148.946 30.4 69.776 30.4 121.864 81.443 52.087 51.042 82.639 119.802Q859 494.406 859 574.203t-30.551 149.354q-30.552 69.558-82.639 121.6Q693.722 897.2 623.946 927.1 554.171 957 475.056 957ZM602 743 449 592.435V375h68v187.513L651 693l-49 50Z"/></svg>