<svg xmlns="http://www.w3.org/2000/svg" height="48" viewBox="0 96 960 960" width="48"><path d="M727.294 997q-55.877 0-96.086-40.43Q591 916.14 591 862.055q0-7.344 2-18.367 2-11.024 4-20.479L330.629 667Q311 687 286.654 699.5T234.448 712q-54.937 0-95.192-40.368Q99 631.265 99 575.706q0-55.559 40.256-95.133Q179.511 441 234.448 441q27.506 0 51.529 10.5Q310 462 330.341 482L597 327.708q-2-6.936-4-18.129-2-11.192-2-18.469 0-55.404 39.914-95.257T726.706 156q54.794 0 95.044 39.691t40.25 95.25q0 55.559-40.255 95.309Q781.489 426 726.552 426q-29.213 0-52.459-7.969-23.246-7.969-41.722-28.031L365 536.209q2 8.741 3.5 20.698Q370 568.865 370 576t-1.5 16.593q-1.5 9.457-3.5 18.198L632.712 761q18.135-16.062 40.558-25.531Q695.692 726 726.552 726q54.937 0 95.193 40.368Q862 806.735 862 861.618q0 54.882-39.956 95.132Q782.088 997 727.294 997Zm-.855-651Q750 346 766 330.263t16-39Q782 268 766.238 252q-15.762-16-39.063-16-23.725 0-39.95 15.745Q671 267.489 671 290.491q0 23.427 15.939 39.468Q702.877 346 726.439 346Zm-492 286Q258 632 274 616.061q16-15.938 16-39.5Q290 553 274.238 537t-39.063-16q-23.725 0-39.95 15.762T179 575.825q0 23.725 15.939 39.95Q210.877 632 234.439 632Zm492 285Q750 917 766 901.061q16-15.938 16-39.5Q782 838 766.238 822t-39.063-16q-23.725 0-39.95 15.762T671 860.825q0 23.725 15.939 39.95Q702.877 917 726.439 917ZM727 291ZM235 576Zm492 285Z"/></svg>