<svg xmlns="http://www.w3.org/2000/svg" height="48" viewBox="0 96 960 960" width="48"><path d="M479.882 652q-39.465 0-67.674-28.326Q384 595.348 384 555.882q0-39.465 28.326-67.674Q440.652 460 480.118 460q39.465 0 67.674 28.326Q576 516.652 576 556.118q0 39.465-28.326 67.674Q519.348 652 479.882 652Zm.888 224Q329 876 205.5 787 82 698 21 556q61-142 184.5-231T480 236q153 0 277.498 90.471Q881.997 416.943 940 558h-84q-54-108-154.538-175Q600.924 316 480 316q-120.987 0-221.366 65.082Q158.255 446.164 105 556q53.418 109.918 153.448 174.959T479.938 796q24.229 0 46.062-3t45-8v81.821Q548 870 526.152 873q-21.848 3-45.382 3Zm-.503-153q29.17 0 53.896-8.632Q558.889 705.737 578 692q11-28 26.5-50.5T644 600q0-11 1.5-21.7T647 556q0-69.583-48.794-118.292Q549.412 389 479.706 389T361.5 437.794q-48.5 48.794-48.5 118.5T361.786 674.5Q410.573 723 480.267 723ZM481 556Zm205 391q-14.125 0-24.562-9.938Q651 927.125 651 912V792q0-14 12-24t28-10v-46q0-30.525 21.668-52.263 21.668-21.737 53-21.737t52.832 21.737Q840 681.475 840 712v46q17 0 28.5 10t11.5 24v120q0 15.125-10.213 25.062Q859.575 947 846 947H686Zm34-189h91v-45.719Q811 693 798.013 680q-12.988-13-31.925-13Q746 667 733 680.156T720 712.5V758Z"/></svg>